<svg xmlns="http://www.w3.org/2000/svg" xmlns:xlink="http://www.w3.org/1999/xlink" xmlns:lucid="lucid" width="1301" height="1201"><g transform="translate(-259.5 1060.5)" lucid:page-tab-id="bnFes7fgtGc7"><path d="M0-1200h1760V160H0z" fill="#fff"/><path d="M1064.1-1020.78a38.8 38.8 0 0 0 21.9 6.78h442a12 12 0 0 1 12 12V108a12 12 0 0 1-12 12H292a12 12 0 0 1-12-12v-1136a12 12 0 0 1 12-12h732a38.8 38.8 0 0 1 21.9 6.78zM280-1014h794" stroke="#333" fill="#fff"/><use xlink:href="#a" transform="matrix(1,0,0,1,288,-1040) translate(257.575 16.6)"/><use xlink:href="#b" transform="matrix(1,0,0,1,288,-1040) translate(281.575 16.6)"/><use xlink:href="#c" transform="matrix(1,0,0,1,288,-1040) translate(320.525 16.6)"/><use xlink:href="#d" transform="matrix(1,0,0,1,288,-1040) translate(416.425 16.6)"/><path d="M430-708a12 12 0 0 1 12-12h78a10 10 0 0 1 10 10v2.93a17.07 17.07 0 0 1-5 12.07 17.07 17.07 0 0 1-12.07 5H442a12 12 0 0 1-12-12z" fill="#fff"/><path d="M530-720v20l-10 10h-90" stroke="#333" fill="none"/><path d="M430-708a12 12 0 0 1 12-12h916a12 12 0 0 1 12 12v356a12 12 0 0 1-12 12H442a12 12 0 0 1-12-12zM430-530h20m15 0h20m15 0h20m15 0h20m15 0h20m15 0h20m15 0h20m15 0h20m15 0h20m15 0h20m15 0h20m15 0h20m15 0h20m15 0h20m15 0h20m15 0h20m15 0h20m15 0h20m15 0h20m15 0h20m15 0h20m15 0h20m15 0h20m15 0h20m15 0h20m15 0h20m15 0h20" stroke="#333" fill="none"/><use xlink:href="#e" transform="matrix(1,0,0,1,438.00000000000017,-720) translate(-1.4249999999999972 18.6)"/><use xlink:href="#f" transform="matrix(1,0,0,1,442.00000000000017,-682) translate(9.525000000000006 18.6)"/><use xlink:href="#g" transform="matrix(1,0,0,1,442.00000000000017,-682) translate(53.525000000000006 18.6)"/><use xlink:href="#h" transform="matrix(1,0,0,1,442.00000000000017,-682) translate(110.47500000000001 18.6)"/><use xlink:href="#i" transform="matrix(1,0,0,1,442.00000000000017,-522) translate(10.074999999999996 18.6)"/><path d="M650-817.75v10.13m0 10.13v20.28m0 10.13v20.27m0 10.14v20.27m0 10.13v20.27m0 10.13v20.26m0 10.13v20.26m0 10.13v20.25m0 10.14v20.25m0 10.13v20.27m0 10.13v20.26m0 10.14v20.26m0 10.13v20.27m0 10.13v20.26m0 10.13v20.27m0 10.13v20.26m0 10.14v20.26m0 10.13v20.27m0 10.13v20.26m0 10.15v20.26m0 10.14v20.27m0 10.14v20.26m0 10.13v20.27m0 10.13v20.26m0 10.13v20.26M650-68v20.27m0 10.12v20.26m0 10.14v20.26m0 10.13v10.14" stroke="#999" stroke-width="2" fill="none"/><path d="M651-817.72h-2v-1.03h2z" stroke="#999" stroke-width=".05" fill="#999"/><path d="M650 33.32v4.02" stroke="#999" stroke-width="2" fill="none"/><path d="M630-763.25a5 5 0 0 1 5-5h30a5 5 0 0 1 5 5V-45a5 5 0 0 1-5 5h-30a5 5 0 0 1-5-5z" stroke="#000" stroke-opacity="0" stroke-width="2" fill="#d2d3d5"/><path d="M1170-817.75v10.2m0 10.18v20.4m0 10.18v20.4m0 10.2v20.37m0 10.2v20.38m0 10.2v20.38m0 10.2v20.37m0 10.2v20.38m0 10.2v20.38m0 10.2v20.38m0 10.2v20.37m0 10.2v10.2l-.02.23-.06.24-.1.22-.1.2-.17.18-.18.15-.2.13-.23.1-.23.04-.23.02-.24.02-.23.06-.22.1-.2.1-.2.17-.14.18-.13.2-.08.23-.05.23-.02.25v10.2m0 10.18v20.4m0 10.18v20.4m0 10.2v20.37m0 10.2v20.38m0 10.2v20.38m0 10.2v20.37m0 10.2v20.38m0 10.2v20.38m0 10.2v20.37m0 10.2v20.38m0 10.2v10.2" stroke="#999" stroke-width="2" fill="none"/><path d="M1171-817.72h-2v-1.03h2z" stroke="#999" stroke-width=".05" fill="#999"/><path d="M1166.95-142.03v1.03" stroke="#999" stroke-width="2" fill="none"/><path d="M610 5a5 5 0 0 1 5-5h70a5 5 0 0 1 5 5v70a5 5 0 0 1-5 5h-70a5 5 0 0 1-5-5z" fill="none"/><path d="M618 8l64 64m0-64l-64 64" stroke="#666" stroke-width="8" fill="none"/><path d="M1150-763.25a5 5 0 0 1 5-5h30a5 5 0 0 1 5 5V-45a5 5 0 0 1-5 5h-30a5 5 0 0 1-5-5z" stroke="#000" stroke-opacity="0" stroke-width="2" fill="#d2d3d5"/><path d="M530-933.75a5 5 0 0 1 5-5h230a5 5 0 0 1 5 5v110a5 5 0 0 1-5 5H535a5 5 0 0 1-5-5z" stroke="#000" stroke-opacity="0" stroke-width="2" fill="#ffbd50"/><use xlink:href="#j" transform="matrix(1,0,0,1,530,-938.7499999999999) translate(21.755000000000003 63.15)"/><path d="M1090-933.75a5 5 0 0 1 5-5h150a5 5 0 0 1 5 5v110a5 5 0 0 1-5 5h-150a5 5 0 0 1-5-5z" stroke="#000" stroke-opacity="0" stroke-width="2" fill="#ffcc78"/><use xlink:href="#k" transform="matrix(1,0,0,1,1090,-938.7499999999999) translate(41.529999999999994 63.15)"/><path d="M670.5-760h463.12" stroke="#333" fill="none"/><path d="M670.5-759.5h-.5v-1h.5z" stroke="#333" stroke-width=".05" fill="#333"/><path d="M1148.38-760l-14.27 4.64.02-9.27z" stroke="#333" fill="#333"/><use xlink:href="#l" transform="matrix(1,0,0,1,846.0749504532366,-785.5955128289371) translate(0.005000000000002558 14.4)"/><path d="M1149.5-666.57h-1v-1h1zm-5 0h-1.98v-1h2zm-5.98 0h-2v-1h2zm-5.98 0h-2v-1h2zm-6 0h-2v-1h2zm-5.98 0h-2v-1h2zm-6 0h-1.98v-1h2zm-5.97 0h-2v-1h2zm-6 0h-2v-1h2zm-6 0h-1.98v-1h2zm-5.98 0h-2v-1h2zm-5.98 0h-2v-1h2zm-6 0h-2v-1h2zm-5.98 0h-2v-1h2zm-6 0h-1.98v-1h2zm-5.98 0h-2v-1h2zm-5.98 0h-2v-1h2zm-6 0h-2v-1h2zm-5.98 0h-2v-1h2zm-6 0h-1.98v-1h2zm-5.97 0h-2v-1h2zm-6 0h-2v-1h2zm-5.98 0h-2v-1h2zm-6 0h-1.98v-1h2zm-5.97 0h-2v-1h2zm-6 0h-1.98v-1h2zm-5.98 0h-2v-1h2zm-6 0h-1.98v-1h2zm-5.97 0h-1.43v-1h1.43zm-144.37 0h-2v-1h2zm-6.04 0h-2.02v-1h2.02zm-6.04 0h-2.02v-1h2.02zm-6.05 0h-2v-1h2zm-6.04 0h-2v-1h2zm-6.03 0h-2.02v-1h2zm-6.05 0h-2v-1h2zm-6.04 0h-2.02v-1h2.02zm-6.05 0h-2v-1h2zm-6.04 0h-2.02v-1h2zm-6.05 0h-2.02v-1h2.02zm-6.05 0h-2v-1h2zm-6.04 0h-2v-1h2zm-6.04 0h-2.02v-1h2.02zm-6.05 0h-2v-1h2zm-6.04 0h-2.02v-1h2.03zm-6.05 0h-2v-1h2zm-6.04 0h-2v-1h2zm-6.04 0h-2.02v-1h2.02zm-6.05 0h-2v-1h2zm-6.04 0h-2v-1h2zm-6.03 0h-2.02v-1h2.02zm-6.05 0h-2v-1h2zm-6.04 0h-2v-1h2zm-6.04 0h-2.02v-1h2.02zm-6.05 0h-1v-1h1z" stroke="#333" stroke-width=".05" fill="#333"/><path d="M1150-666.57h-.5v-1h.5z" fill="#333"/><path d="M1150.03-666.54h-.57v-1.05h.57zm-.52-1v.95h.47v-.94z" stroke="#333" stroke-width=".05" fill="#333"/><path d="M685.9-662.43l-14.28-4.64 14.26-4.63z" fill="#333"/><path d="M686.4-661.74l-16.4-5.33 16.38-5.32zm-13.16-5.33l12.14 3.95v-7.9z" stroke="#333" stroke-width=".05" fill="#333"/><use xlink:href="#m" transform="matrix(1,0,0,1,838.5749633911712,-677.8679101351928) translate(0.0049999999999954525 14.4)"/><use xlink:href="#n" transform="matrix(1,0,0,1,838.5749633911712,-677.8679101351928) translate(51.904999999999994 14.4)"/><use xlink:href="#o" transform="matrix(1,0,0,1,838.5749633911712,-677.8679101351928) translate(90.905 14.4)"/><path d="M670.5-310.67h463.12" stroke="#333" fill="none"/><path d="M670.5-310.17h-.5v-1h.5z" stroke="#333" stroke-width=".05" fill="#333"/><path d="M1148.38-310.67l-14.27 4.64.02-9.27z" stroke="#333" fill="#333"/><use xlink:href="#p" transform="matrix(1,0,0,1,841.6000130297055,-336.26666613926704) translate(0.0049999999999954525 14.4)"/><path d="M832.44-261.18h-2.02v-1h2.02zm-6.04 0h-2.02v-1h2.02zm-6.05 0h-2v-1h2zm-6.04 0h-2v-1h2zm-6.03 0h-2.02v-1h2zm-6.05 0h-2v-1h2zm-6.04 0h-2.02v-1h2.02zm-6.05 0h-2v-1h2zm-6.04 0h-2.02v-1h2zm-6.05 0h-2.02v-1h2.02zm-6.05 0h-2v-1h2zm-6.04 0h-2v-1h2zm-6.04 0h-2.02v-1h2.02zm-6.05 0h-2v-1h2zm-6.04 0h-2.02v-1h2.03zm-6.05 0h-2v-1h2zm-6.04 0h-2v-1h2zm-6.04 0h-2.02v-1h2.02zm-6.05 0h-2v-1h2zm-6.04 0h-2v-1h2zm-6.03 0h-2.02v-1h2.02zm-6.05 0h-2v-1h2zm-6.04 0h-2v-1h2zm-6.05 0h-2v-1h2zm-6.04 0h-1.02v-1h1zm462.1 0h-1v-1h1zm-5 0h-1.98v-1h2zm-5.98 0h-2v-1h2zm-5.98 0h-2v-1h2zm-6 0h-2v-1h2zm-5.98 0h-2v-1h2zm-6 0h-1.98v-1h2zm-5.97 0h-2v-1h2zm-6 0h-2v-1h2zm-6 0h-1.98v-1h2zm-5.98 0h-2v-1h2zm-5.98 0h-2v-1h2zm-6 0h-2v-1h2zm-5.98 0h-2v-1h2zm-6 0h-1.98v-1h2zm-5.97 0h-2v-1h2zm-6 0h-2v-1h2zm-6 0h-2v-1h2zm-5.98 0h-2v-1h2zm-5.98 0h-2v-1h2zm-6 0h-2v-1h2zm-5.98 0h-2v-1h2zm-6 0h-1.98v-1h2zm-5.97 0h-2v-1h2zm-6 0h-2v-1h2zm-6 0h-1.98v-1h2zm-5.98 0h-2v-1h2zm-5.98 0h-2v-1h2z" stroke="#333" stroke-width=".05" fill="#333"/><path d="M1150-261.18h-.5v-1h.5z" fill="#333"/><path d="M1150.03-261.16h-.57v-1.05h.57zm-.52-1v.95h.47v-.96z" stroke="#333" stroke-width=".05" fill="#333"/><path d="M685.88-257.05l-14.26-4.63 14.26-4.64z" fill="#333"/><path d="M686.38-256.36L670-261.68l16.38-5.33zm-13.14-5.32l12.14 3.94v-7.9z" stroke="#333" stroke-width=".05" fill="#333"/><use xlink:href="#m" transform="matrix(1,0,0,1,836.0750198317614,-272.48348970574) translate(0.0049999999999954525 14.4)"/><use xlink:href="#q" transform="matrix(1,0,0,1,836.0750198317614,-272.48348970574) translate(51.904999999999994 14.4)"/><path d="M650-459.67a12 12 0 0 1 12-12h16a12 12 0 0 1 12 12v56a12 12 0 0 1-12 12h-16a12 12 0 0 1-12-12z" stroke="#333" fill="#fff"/><path d="M670.5-494.67h48a12 12 0 0 1 12 12v34.27a12 12 0 0 1-12 12h-11.62" stroke="#333" fill="none"/><path d="M670.5-494.17h-.5v-1h.5z" stroke="#333" stroke-width=".05" fill="#333"/><path d="M692.12-436.4l14.26-4.63v9.27z" stroke="#333" fill="#333"/><use xlink:href="#r" transform="matrix(1,0,0,1,738.4999415619361,-486.5818845841978) translate(0.005000000000002558 14.4)"/><use xlink:href="#s" transform="matrix(1,0,0,1,738.4999415619361,-486.5818845841978) translate(49.955000000000005 14.4)"/><path d="M691-431.67h.92m3.66 0h1.84m3.66 0h1.84m3.66 0h1.84m3.66 0h1.84m3.66 0h.92l1.04.08m4.02 1.08l.4.16 1.4.87m2.96 2.95l.87 1.43.15.4m1.07 4l.08 1.05v1.06m0 4.25v2.13m0 4.26v2.13m0 4.26v2.13m0 4.26v2.13m0 4.26v2.14m0 4.26v1.07l-.08 1.04m-1.07 4.03l-.16.38-.88 1.44m-2.95 2.94l-1.42.88-.4.16m-4 1.06l-1.05.1h-1.07m-4.28 0H711m-4.28 0h-2.14m-4.28 0h-2.14m-4.28 0h-2.14m-4.3 0h-1.06" stroke="#333" fill="none"/><path d="M691-431.17h-.5v-1h.5z" stroke="#333" stroke-width=".05" fill="#333"/><path d="M671.62-369.33l14.26-4.64v9.27z" stroke="#333" fill="#333"/><path d="M671.1-164.73a12 12 0 0 1 12-12h16a12 12 0 0 1 12 12v56a12 12 0 0 1-12 12h-16a12 12 0 0 1-12-12z" stroke="#333" fill="#fff"/><path d="M670.5-205.7h69.1a12 12 0 0 1 12 12v40.24a12 12 0 0 1-12 12h-11.63" stroke="#333" fill="none"/><path d="M670.5-205.2h-.5v-1h.5z" stroke="#333" stroke-width=".05" fill="#333"/><path d="M713.2-141.46l14.27-4.63v9.28z" stroke="#333" fill="#333"/><use xlink:href="#r" transform="matrix(1,0,0,1,759.5848259319582,-205.17384323546048) translate(0.0049999999999954525 14.4)"/><use xlink:href="#q" transform="matrix(1,0,0,1,759.5848259319582,-205.17384323546048) translate(49.955 14.4)"/><path d="M712.1-136.73h.9m3.67 0h1.83m3.67 0H724m3.67 0h1.83m3.67 0H735m3.67 0h.92l1.03.08m4.02 1.06l.38.17 1.43.88m2.94 2.94l.88 1.42.16.4m1.06 4l.1 1.05v.92m0 3.67v1.84m0 3.7v1.83m0 3.68v1.85m0 3.7v1.83m0 3.68v.92l-.1 1.04m-1.06 4.02l-.16.4-.88 1.4m-2.94 2.95l-1.43.87-.38.16m-4.02 1.07l-1.04.08h-1m-3.94 0h-1.97m-3.95 0h-1.97m-3.94 0h-1.97m-3.95 0h-1.96m-3.95 0h-1.96m-3.94 0h-1.97m-3.94 0h-1.98m-3.94 0h-1.97m-3.93 0h-1" stroke="#333" fill="none"/><path d="M712.1-136.23h-.5v-1h.5z" stroke="#333" stroke-width=".05" fill="#333"/><path d="M671.62-85.12l14.26-4.64v9.27z" stroke="#333" fill="#333"/><path d="M671.1-633.2a12 12 0 0 1 12-12h16a12 12 0 0 1 12 12v56a12 12 0 0 1-12 12h-16a12 12 0 0 1-12-12z" stroke="#333" fill="#fff"/><path d="M741.54-651.87l1.9.46 1.82.74 1.67 1.02 1.5 1.28 1.27 1.5 1.02 1.66.75 1.82.46 1.9.16 1.94v17.62l-.17 1.94-.45 1.9-.76 1.82-1.02 1.67-1.28 1.5-1.5 1.28-1.66 1.02-1.8.75-1.92.46-1.94.16h-11.63v-1h11.6l1.8-.14 1.77-.42 1.66-.7 1.54-.93 1.38-1.18 1.17-1.38.93-1.54.7-1.66.4-1.76.16-1.82v-17.54l-.16-1.82-.42-1.75-.7-1.67-.93-1.54-1.18-1.37-1.38-1.17-1.54-.95-1.66-.7-1.76-.4-1.8-.15H670.5v-1h69.1z" stroke="#333" stroke-width=".05" fill="#333"/><path d="M670.5-651.02h-.5v-1h.5z" fill="#333"/><path d="M670.54-651h-.56v-1.05h.56zm-.5-1v.95h.45v-.95z" stroke="#333" stroke-width=".05" fill="#333"/><path d="M727.47-605.3l-14.27-4.64 14.27-4.63z" fill="#333"/><path d="M727.97-604.6l-16.38-5.34 16.37-5.32zm-13.15-5.34l12.15 3.95v-7.88z" stroke="#333" stroke-width=".05" fill="#333"/><g><use xlink:href="#t" transform="matrix(1,0,0,1,759.5848259319583,-662.3211175742459) translate(0.0049999999999954525 14.4)"/><use xlink:href="#n" transform="matrix(1,0,0,1,759.5848259319583,-662.3211175742459) translate(46.955 14.4)"/><use xlink:href="#o" transform="matrix(1,0,0,1,759.5848259319583,-662.3211175742459) translate(85.955 14.4)"/></g><path d="M712.1-605.2h.9m3.67 0h1.83m3.67 0H724m3.67 0h1.83m3.67 0H735m3.67 0h.92l1.03.07m4.02 1.07l.38.16 1.43.87m2.94 2.94l.88 1.44.16.4m1.06 4l.1 1.05v1.1m0 4.37v2.2m0 4.37v2.2m0 4.38v2.2m0 4.38v2.2m0 4.37v1.1l-.1 1.04m-1.06 4.03l-.16.38-.88 1.44m-2.94 2.94l-1.43.88-.38.16m-4.02 1.07l-1.04.07h-1m-3.94 0h-1.97m-3.95 0h-1.97m-3.94 0h-1.97m-3.95 0h-1.96m-3.95 0h-1.96m-3.94 0h-1.97m-3.94 0h-1.98m-3.94 0h-1.97m-3.93 0h-1" stroke="#333" fill="none"/><path d="M712.1-604.7h-.5v-1h.5z" stroke="#333" stroke-width=".05" fill="#333"/><path d="M671.62-548.33l14.26-4.64v9.27z" stroke="#333" fill="#333"/><defs><path fill="#333" d="M135-143c-3-34-86-38-87 0 15 53 115 12 119 90S17 21 10-45l28-5c4 36 97 45 98 0-10-56-113-15-118-90-4-57 82-63 122-42 12 7 21 19 24 35" id="u"/><path fill="#333" d="M85-194c31 0 48 13 60 33l-1-100h32l1 261h-30c-2-10 0-23-3-31C134-8 116 4 85 4 32 4 16-35 15-94c0-66 23-100 70-100zm9 24c-40 0-46 34-46 75 0 40 6 74 45 74 42 0 51-32 51-76 0-42-9-74-50-73" id="v"/><g id="a"><use transform="matrix(0.05,0,0,0.05,0,0)" xlink:href="#u"/><use transform="matrix(0.05,0,0,0.05,9,0)" xlink:href="#v"/></g><path fill="#333" d="M100-194c63 0 86 42 84 106H49c0 40 14 67 53 68 26 1 43-12 49-29l28 8c-11 28-37 45-77 45C44 4 14-33 15-96c1-61 26-98 85-98zm52 81c6-60-76-77-97-28-3 7-6 17-6 28h103" id="w"/><path fill="#333" d="M24-231v-30h32v30H24zM24 0v-190h32V0H24" id="x"/><path fill="#333" d="M117-194c89-4 53 116 60 194h-32v-121c0-31-8-49-39-48C34-167 62-67 57 0H25l-1-190h30c1 10-1 24 2 32 11-22 29-35 61-36" id="y"/><g id="b"><use transform="matrix(0.05,0,0,0.05,0,0)" xlink:href="#w"/><use transform="matrix(0.05,0,0,0.05,10,0)" xlink:href="#x"/><use transform="matrix(0.05,0,0,0.05,13.949999999999998,0)" xlink:href="#y"/><use transform="matrix(0.05,0,0,0.05,23.95,0)" xlink:href="#w"/></g><path fill="#333" d="M137 0h-34L2-248h35l83 218 83-218h36" id="z"/><path fill="#333" d="M114-163C36-179 61-72 57 0H25l-1-190h30c1 12-1 29 2 39 6-27 23-49 58-41v29" id="A"/><path fill="#333" d="M115-194c53 0 69 39 70 98 0 66-23 100-70 100C84 3 66-7 56-30L54 0H23l1-261h32v101c10-23 28-34 59-34zm-8 174c40 0 45-34 45-75 0-40-5-75-45-74-42 0-51 32-51 76 0 43 10 73 51 73" id="B"/><path fill="#333" d="M84 4C-5 8 30-112 23-190h32v120c0 31 7 50 39 49 72-2 45-101 50-169h31l1 190h-30c-1-10 1-25-2-33-11 22-28 36-60 37" id="C"/><path fill="#333" d="M177-190C167-65 218 103 67 71c-23-6-38-20-44-43l32-5c15 47 100 32 89-28v-30C133-14 115 1 83 1 29 1 15-40 15-95c0-56 16-97 71-98 29-1 48 16 59 35 1-10 0-23 2-32h30zM94-22c36 0 50-32 50-73 0-42-14-75-50-75-39 0-46 34-46 75s6 73 46 73" id="D"/><g id="c"><use transform="matrix(0.05,0,0,0.05,0,0)" xlink:href="#z"/><use transform="matrix(0.05,0,0,0.05,11,0)" xlink:href="#w"/><use transform="matrix(0.05,0,0,0.05,21,0)" xlink:href="#A"/><use transform="matrix(0.05,0,0,0.05,26.950000000000003,0)" xlink:href="#B"/><use transform="matrix(0.05,0,0,0.05,36.95,0)" xlink:href="#x"/><use transform="matrix(0.05,0,0,0.05,40.900000000000006,0)" xlink:href="#y"/><use transform="matrix(0.05,0,0,0.05,50.900000000000006,0)" xlink:href="#v"/><use transform="matrix(0.05,0,0,0.05,60.900000000000006,0)" xlink:href="#C"/><use transform="matrix(0.05,0,0,0.05,70.9,0)" xlink:href="#y"/><use transform="matrix(0.05,0,0,0.05,80.9,0)" xlink:href="#D"/></g><path fill="#333" d="M96-169c-40 0-48 33-48 73s9 75 48 75c24 0 41-14 43-38l32 2c-6 37-31 61-74 61-59 0-76-41-82-99-10-93 101-131 147-64 4 7 5 14 7 22l-32 3c-4-21-16-35-41-35" id="E"/><path fill="#333" d="M106-169C34-169 62-67 57 0H25v-261h32l-1 103c12-21 28-36 61-36 89 0 53 116 60 194h-32v-121c2-32-8-49-39-48" id="F"/><g id="d"><use transform="matrix(0.05,0,0,0.05,0,0)" xlink:href="#u"/><use transform="matrix(0.05,0,0,0.05,9,0)" xlink:href="#C"/><use transform="matrix(0.05,0,0,0.05,19,0)" xlink:href="#E"/><use transform="matrix(0.05,0,0,0.05,28,0)" xlink:href="#F"/><use transform="matrix(0.05,0,0,0.05,38,0)" xlink:href="#w"/><use transform="matrix(0.05,0,0,0.05,48,0)" xlink:href="#y"/></g><path fill="#333" d="M205 0l-28-72H64L36 0H1l101-248h38L239 0h-34zm-38-99l-47-123c-12 45-31 82-46 123h93" id="G"/><path fill="#333" d="M24 0v-261h32V0H24" id="H"/><path fill="#333" d="M59-47c-2 24 18 29 38 22v24C64 9 27 4 27-40v-127H5v-23h24l9-43h21v43h35v23H59v120" id="I"/><path fill="#333" d="M141-36C126-15 110 5 73 4 37 3 15-17 15-53c-1-64 63-63 125-63 3-35-9-54-41-54-24 1-41 7-42 31l-33-3c5-37 33-52 76-52 45 0 72 20 72 64v82c-1 20 7 32 28 27v20c-31 9-61-2-59-35zM48-53c0 20 12 33 32 33 41-3 63-29 60-74-43 2-92-5-92 41" id="J"/><path fill="#333" d="M108 0H70L1-190h34L89-25l56-165h34" id="K"/><g id="e"><use transform="matrix(0.05,0,0,0.05,0,0)" xlink:href="#G"/><use transform="matrix(0.05,0,0,0.05,12,0)" xlink:href="#H"/><use transform="matrix(0.05,0,0,0.05,15.949999999999998,0)" xlink:href="#I"/><use transform="matrix(0.05,0,0,0.05,20.95,0)" xlink:href="#w"/><use transform="matrix(0.05,0,0,0.05,30.950000000000003,0)" xlink:href="#A"/><use transform="matrix(0.05,0,0,0.05,36.9,0)" xlink:href="#y"/><use transform="matrix(0.05,0,0,0.05,46.9,0)" xlink:href="#J"/><use transform="matrix(0.05,0,0,0.05,56.900000000000006,0)" xlink:href="#I"/><use transform="matrix(0.05,0,0,0.05,61.900000000000006,0)" xlink:href="#x"/><use transform="matrix(0.05,0,0,0.05,65.85,0)" xlink:href="#K"/><use transform="matrix(0.05,0,0,0.05,74.85,0)" xlink:href="#w"/></g><path fill="#333" d="M26 75v-336h71v23H56V52h41v23H26" id="L"/><path fill="#333" d="M100-194c62-1 85 37 85 99 1 63-27 99-86 99S16-35 15-95c0-66 28-99 85-99zM99-20c44 1 53-31 53-75 0-43-8-75-51-75s-53 32-53 75 10 74 51 75" id="M"/><path fill="#333" d="M115-194c55 1 70 41 70 98S169 2 115 4C84 4 66-9 55-30l1 105H24l-1-265h31l2 30c10-21 28-34 59-34zm-8 174c40 0 45-34 45-75s-6-73-45-74c-42 0-51 32-51 76 0 43 10 73 51 73" id="N"/><g id="f"><use transform="matrix(0.05,0,0,0.05,0,0)" xlink:href="#L"/><use transform="matrix(0.05,0,0,0.05,5,0)" xlink:href="#u"/><use transform="matrix(0.05,0,0,0.05,14,0)" xlink:href="#I"/><use transform="matrix(0.05,0,0,0.05,19,0)" xlink:href="#M"/><use transform="matrix(0.05,0,0,0.05,29,0)" xlink:href="#N"/></g><g id="g"><use transform="matrix(0.05,0,0,0.05,0,0)" xlink:href="#N"/><use transform="matrix(0.05,0,0,0.05,10,0)" xlink:href="#H"/><use transform="matrix(0.05,0,0,0.05,13.949999999999998,0)" xlink:href="#J"/><use transform="matrix(0.05,0,0,0.05,23.95,0)" xlink:href="#E"/><use transform="matrix(0.05,0,0,0.05,32.95,0)" xlink:href="#w"/><use transform="matrix(0.05,0,0,0.05,42.95,0)" xlink:href="#u"/></g><path fill="#333" d="M101-234c-31-9-42 10-38 44h38v23H63V0H32v-167H5v-23h27c-7-52 17-82 69-68v24" id="O"/><path fill="#333" d="M103-251c84 0 111 97 45 133-19 10-37 24-39 52H78c0-63 77-55 77-114 0-30-21-42-52-43-32 0-53 17-56 46l-32-2c7-45 34-72 88-72zM77 0v-35h34V0H77" id="P"/><path fill="#333" d="M3 75V52h41v-290H3v-23h71V75H3" id="Q"/><g id="h"><use transform="matrix(0.05,0,0,0.05,0,0)" xlink:href="#O"/><use transform="matrix(0.05,0,0,0.05,5,0)" xlink:href="#M"/><use transform="matrix(0.05,0,0,0.05,15,0)" xlink:href="#C"/><use transform="matrix(0.05,0,0,0.05,25,0)" xlink:href="#y"/><use transform="matrix(0.05,0,0,0.05,35,0)" xlink:href="#v"/><use transform="matrix(0.05,0,0,0.05,45,0)" xlink:href="#P"/><use transform="matrix(0.05,0,0,0.05,55,0)" xlink:href="#Q"/></g><g id="i"><use transform="matrix(0.05,0,0,0.05,0,0)" xlink:href="#L"/><use transform="matrix(0.05,0,0,0.05,5,0)" xlink:href="#G"/><use transform="matrix(0.05,0,0,0.05,17,0)" xlink:href="#y"/><use transform="matrix(0.05,0,0,0.05,27,0)" xlink:href="#v"/><use transform="matrix(0.05,0,0,0.05,37,0)" xlink:href="#w"/><use transform="matrix(0.05,0,0,0.05,47,0)" xlink:href="#A"/><use transform="matrix(0.05,0,0,0.05,52.95,0)" xlink:href="#y"/><use transform="matrix(0.05,0,0,0.05,62.95,0)" xlink:href="#O"/><use transform="matrix(0.05,0,0,0.05,67.95,0)" xlink:href="#J"/><use transform="matrix(0.05,0,0,0.05,77.95,0)" xlink:href="#H"/><use transform="matrix(0.05,0,0,0.05,81.9,0)" xlink:href="#H"/><use transform="matrix(0.05,0,0,0.05,85.85000000000001,0)" xlink:href="#u"/><use transform="matrix(0.05,0,0,0.05,94.85000000000001,0)" xlink:href="#Q"/></g><path fill="#333" d="M30-248c118-7 216 8 213 122C240-48 200 0 122 0H30v-248zM63-27c89 8 146-16 146-99s-60-101-146-95v194" id="R"/><path fill="#333" d="M160-131c35 5 61 23 61 61C221 17 115-2 30 0v-248c76 3 177-17 177 60 0 33-19 50-47 57zm-97-11c50-1 110 9 110-42 0-47-63-36-110-37v79zm0 115c55-2 124 14 124-45 0-56-70-42-124-44v89" id="S"/><path fill="#333" d="M16-82v-28h88v28H16" id="T"/><path fill="#333" d="M212-179c-10-28-35-45-73-45-59 0-87 40-87 99 0 60 29 101 89 101 43 0 62-24 78-52l27 14C228-24 195 4 139 4 59 4 22-46 18-125c-6-104 99-153 187-111 19 9 31 26 39 46" id="U"/><path fill="#333" d="M210-169c-67 3-38 105-44 169h-31v-121c0-29-5-50-35-48C34-165 62-65 56 0H25l-1-190h30c1 10-1 24 2 32 10-44 99-50 107 0 11-21 27-35 58-36 85-2 47 119 55 194h-31v-121c0-29-5-49-35-48" id="V"/><path fill="#333" d="M30 0v-248h187v28H63v79h144v27H63v87h162V0H30" id="W"/><path fill="#333" d="M206 0h-36l-40-164L89 0H53L-1-190h32L70-26l43-164h34l41 164 42-164h31" id="X"/><g id="j"><use transform="matrix(0.05,0,0,0.05,0,0)" xlink:href="#R"/><use transform="matrix(0.05,0,0,0.05,12.950000000000001,0)" xlink:href="#S"/><use transform="matrix(0.05,0,0,0.05,24.950000000000003,0)" xlink:href="#T"/><use transform="matrix(0.05,0,0,0.05,30.900000000000002,0)" xlink:href="#U"/><use transform="matrix(0.05,0,0,0.05,43.85,0)" xlink:href="#F"/><use transform="matrix(0.05,0,0,0.05,53.85,0)" xlink:href="#A"/><use transform="matrix(0.05,0,0,0.05,59.800000000000004,0)" xlink:href="#M"/><use transform="matrix(0.05,0,0,0.05,69.80000000000001,0)" xlink:href="#V"/><use transform="matrix(0.05,0,0,0.05,84.75000000000001,0)" xlink:href="#w"/><use transform="matrix(0.05,0,0,0.05,94.75000000000001,0)" xlink:href="#T"/><use transform="matrix(0.05,0,0,0.05,100.70000000000002,0)" xlink:href="#W"/><use transform="matrix(0.05,0,0,0.05,112.7,0)" xlink:href="#A"/><use transform="matrix(0.05,0,0,0.05,118.65000000000003,0)" xlink:href="#X"/><use transform="matrix(0.05,0,0,0.05,131.60000000000002,0)" xlink:href="#w"/><use transform="matrix(0.05,0,0,0.05,141.60000000000002,0)" xlink:href="#x"/><use transform="matrix(0.05,0,0,0.05,145.55,0)" xlink:href="#I"/><use transform="matrix(0.05,0,0,0.05,150.55,0)" xlink:href="#w"/><use transform="matrix(0.05,0,0,0.05,160.55,0)" xlink:href="#A"/><use transform="matrix(0.05,0,0,0.05,166.5,0)" xlink:href="#C"/><use transform="matrix(0.05,0,0,0.05,176.5,0)" xlink:href="#y"/><use transform="matrix(0.05,0,0,0.05,186.5,0)" xlink:href="#D"/></g><path fill="#333" d="M30-248c87 1 191-15 191 75 0 78-77 80-158 76V0H30v-248zm33 125c57 0 124 11 124-50 0-59-68-47-124-48v98" id="Y"/><path fill="#333" d="M33 0v-248h34V0H33" id="Z"/><g id="k"><use transform="matrix(0.05,0,0,0.05,0,0)" xlink:href="#S"/><use transform="matrix(0.05,0,0,0.05,12,0)" xlink:href="#J"/><use transform="matrix(0.05,0,0,0.05,22,0)" xlink:href="#F"/><use transform="matrix(0.05,0,0,0.05,32,0)" xlink:href="#y"/><use transform="matrix(0.05,0,0,0.05,42,0)" xlink:href="#T"/><use transform="matrix(0.05,0,0,0.05,47.95,0)" xlink:href="#G"/><use transform="matrix(0.05,0,0,0.05,59.95,0)" xlink:href="#Y"/><use transform="matrix(0.05,0,0,0.05,71.95,0)" xlink:href="#Z"/></g><path fill="#333" d="M185-189c-5-48-123-54-124 2 14 75 158 14 163 119 3 78-121 87-175 55-17-10-28-26-33-46l33-7c5 56 141 63 141-1 0-78-155-14-162-118-5-82 145-84 179-34 5 7 8 16 11 25" id="aa"/><path fill="#333" d="M87 75C49 33 22-17 22-94c0-76 28-126 65-167h31c-38 41-64 92-64 168S80 34 118 75H87" id="ab"/><path fill="#333" d="M33-261c38 41 65 92 65 168S71 34 33 75H2C39 34 66-17 66-93S39-220 2-261h31" id="ac"/><g id="l"><use transform="matrix(0.05,0,0,0.05,0,0)" xlink:href="#D"/><use transform="matrix(0.05,0,0,0.05,10,0)" xlink:href="#w"/><use transform="matrix(0.05,0,0,0.05,20,0)" xlink:href="#I"/><use transform="matrix(0.05,0,0,0.05,25,0)" xlink:href="#aa"/><use transform="matrix(0.05,0,0,0.05,37,0)" xlink:href="#I"/><use transform="matrix(0.05,0,0,0.05,42,0)" xlink:href="#M"/><use transform="matrix(0.05,0,0,0.05,52,0)" xlink:href="#N"/><use transform="matrix(0.05,0,0,0.05,62,0)" xlink:href="#Y"/><use transform="matrix(0.05,0,0,0.05,74,0)" xlink:href="#H"/><use transform="matrix(0.05,0,0,0.05,77.95,0)" xlink:href="#J"/><use transform="matrix(0.05,0,0,0.05,87.95,0)" xlink:href="#E"/><use transform="matrix(0.05,0,0,0.05,96.95,0)" xlink:href="#w"/><use transform="matrix(0.05,0,0,0.05,106.95,0)" xlink:href="#u"/><use transform="matrix(0.05,0,0,0.05,115.95,0)" xlink:href="#ab"/><use transform="matrix(0.05,0,0,0.05,121.9,0)" xlink:href="#ac"/></g><g id="m"><use transform="matrix(0.05,0,0,0.05,0,0)" xlink:href="#A"/><use transform="matrix(0.05,0,0,0.05,5.95,0)" xlink:href="#w"/><use transform="matrix(0.05,0,0,0.05,15.949999999999998,0)" xlink:href="#I"/><use transform="matrix(0.05,0,0,0.05,20.95,0)" xlink:href="#C"/><use transform="matrix(0.05,0,0,0.05,30.950000000000003,0)" xlink:href="#A"/><use transform="matrix(0.05,0,0,0.05,36.9,0)" xlink:href="#y"/></g><g id="n"><use transform="matrix(0.05,0,0,0.05,0,0)" xlink:href="#u"/><use transform="matrix(0.05,0,0,0.05,9,0)" xlink:href="#I"/><use transform="matrix(0.05,0,0,0.05,14,0)" xlink:href="#M"/><use transform="matrix(0.05,0,0,0.05,24,0)" xlink:href="#N"/></g><g id="o"><use transform="matrix(0.05,0,0,0.05,0,0)" xlink:href="#N"/><use transform="matrix(0.05,0,0,0.05,10,0)" xlink:href="#H"/><use transform="matrix(0.05,0,0,0.05,13.949999999999998,0)" xlink:href="#J"/><use transform="matrix(0.05,0,0,0.05,23.95,0)" xlink:href="#E"/><use transform="matrix(0.05,0,0,0.05,32.95,0)" xlink:href="#w"/><use transform="matrix(0.05,0,0,0.05,42.95,0)" xlink:href="#u"/></g><g id="p"><use transform="matrix(0.05,0,0,0.05,0,0)" xlink:href="#D"/><use transform="matrix(0.05,0,0,0.05,10,0)" xlink:href="#w"/><use transform="matrix(0.05,0,0,0.05,20,0)" xlink:href="#I"/><use transform="matrix(0.05,0,0,0.05,25,0)" xlink:href="#U"/><use transform="matrix(0.05,0,0,0.05,37.95,0)" xlink:href="#M"/><use transform="matrix(0.05,0,0,0.05,47.95,0)" xlink:href="#y"/><use transform="matrix(0.05,0,0,0.05,57.95,0)" xlink:href="#y"/><use transform="matrix(0.05,0,0,0.05,67.95,0)" xlink:href="#w"/><use transform="matrix(0.05,0,0,0.05,77.95,0)" xlink:href="#E"/><use transform="matrix(0.05,0,0,0.05,86.95,0)" xlink:href="#I"/><use transform="matrix(0.05,0,0,0.05,91.95,0)" xlink:href="#x"/><use transform="matrix(0.05,0,0,0.05,95.9,0)" xlink:href="#M"/><use transform="matrix(0.05,0,0,0.05,105.9,0)" xlink:href="#y"/><use transform="matrix(0.05,0,0,0.05,115.9,0)" xlink:href="#u"/><use transform="matrix(0.05,0,0,0.05,124.9,0)" xlink:href="#ab"/><use transform="matrix(0.05,0,0,0.05,130.85,0)" xlink:href="#ac"/></g><g id="q"><use transform="matrix(0.05,0,0,0.05,0,0)" xlink:href="#E"/><use transform="matrix(0.05,0,0,0.05,9,0)" xlink:href="#M"/><use transform="matrix(0.05,0,0,0.05,19,0)" xlink:href="#y"/><use transform="matrix(0.05,0,0,0.05,29,0)" xlink:href="#y"/><use transform="matrix(0.05,0,0,0.05,39,0)" xlink:href="#w"/><use transform="matrix(0.05,0,0,0.05,49,0)" xlink:href="#E"/><use transform="matrix(0.05,0,0,0.05,58,0)" xlink:href="#I"/><use transform="matrix(0.05,0,0,0.05,63,0)" xlink:href="#x"/><use transform="matrix(0.05,0,0,0.05,66.95,0)" xlink:href="#M"/><use transform="matrix(0.05,0,0,0.05,76.95,0)" xlink:href="#y"/><use transform="matrix(0.05,0,0,0.05,86.95,0)" xlink:href="#u"/></g><g id="r"><use transform="matrix(0.05,0,0,0.05,0,0)" xlink:href="#aa"/><use transform="matrix(0.05,0,0,0.05,12,0)" xlink:href="#F"/><use transform="matrix(0.05,0,0,0.05,22,0)" xlink:href="#M"/><use transform="matrix(0.05,0,0,0.05,32,0)" xlink:href="#X"/></g><g id="s"><use transform="matrix(0.05,0,0,0.05,0,0)" xlink:href="#w"/><use transform="matrix(0.05,0,0,0.05,10,0)" xlink:href="#A"/><use transform="matrix(0.05,0,0,0.05,15.949999999999998,0)" xlink:href="#A"/><use transform="matrix(0.05,0,0,0.05,21.9,0)" xlink:href="#M"/><use transform="matrix(0.05,0,0,0.05,31.899999999999995,0)" xlink:href="#A"/></g><g id="t"><use transform="matrix(0.05,0,0,0.05,0,0)" xlink:href="#u"/><use transform="matrix(0.05,0,0,0.05,9,0)" xlink:href="#F"/><use transform="matrix(0.05,0,0,0.05,19,0)" xlink:href="#M"/><use transform="matrix(0.05,0,0,0.05,29,0)" xlink:href="#X"/></g></defs></g></svg>